<mxfile host="app.diagrams.net" modified="2022-01-17T20:14:26.175Z" agent="5.0 (Windows NT 10.0; Win64; x64) AppleWebKit/537.36 (KHTML, like Gecko) Chrome/97.0.4692.71 Safari/537.36" etag="uHjSR-993ObUYULK2ApA" version="16.2.7" type="github">
  <diagram name="Page-1" id="9f46799a-70d6-7492-0946-bef42562c5a5">
    <mxGraphModel dx="2062" dy="1164" grid="1" gridSize="10" guides="1" tooltips="1" connect="1" arrows="1" fold="1" page="1" pageScale="1" pageWidth="1100" pageHeight="850" background="none" math="0" shadow="0">
      <root>
        <mxCell id="0" />
        <mxCell id="1" parent="0" />
        <mxCell id="i4ThIHbuH4syl8p6AvQ6-4" value="add:i1" style="swimlane;html=1;fontStyle=1;align=center;verticalAlign=top;childLayout=stackLayout;horizontal=1;startSize=26;horizontalStack=0;resizeParent=1;resizeLast=0;collapsible=1;marginBottom=0;swimlaneFillColor=#ffffff;rounded=0;shadow=0;comic=0;labelBackgroundColor=none;strokeWidth=1;fillColor=none;fontFamily=Verdana;fontSize=12" vertex="1" parent="1">
          <mxGeometry x="460" y="80" width="120" height="160" as="geometry" />
        </mxCell>
        <mxCell id="i4ThIHbuH4syl8p6AvQ6-5" value="Types =&amp;nbsp; i1" style="text;html=1;strokeColor=none;fillColor=none;align=left;verticalAlign=top;spacingLeft=4;spacingRight=4;whiteSpace=wrap;overflow=hidden;rotatable=0;points=[[0,0.5],[1,0.5]];portConstraint=eastwest;" vertex="1" parent="i4ThIHbuH4syl8p6AvQ6-4">
          <mxGeometry y="26" width="120" height="26" as="geometry" />
        </mxCell>
        <mxCell id="i4ThIHbuH4syl8p6AvQ6-6" value="Operator = and" style="text;html=1;strokeColor=none;fillColor=none;align=left;verticalAlign=top;spacingLeft=4;spacingRight=4;whiteSpace=wrap;overflow=hidden;rotatable=0;points=[[0,0.5],[1,0.5]];portConstraint=eastwest;" vertex="1" parent="i4ThIHbuH4syl8p6AvQ6-4">
          <mxGeometry y="52" width="120" height="26" as="geometry" />
        </mxCell>
        <mxCell id="i4ThIHbuH4syl8p6AvQ6-7" value="Val&amp;nbsp; = 0" style="text;html=1;strokeColor=none;fillColor=none;align=left;verticalAlign=top;spacingLeft=4;spacingRight=4;whiteSpace=wrap;overflow=hidden;rotatable=0;points=[[0,0.5],[1,0.5]];portConstraint=eastwest;" vertex="1" parent="i4ThIHbuH4syl8p6AvQ6-4">
          <mxGeometry y="78" width="120" height="26" as="geometry" />
        </mxCell>
        <mxCell id="i4ThIHbuH4syl8p6AvQ6-8" value="Name =&amp;nbsp;" style="text;html=1;strokeColor=none;fillColor=none;align=left;verticalAlign=top;spacingLeft=4;spacingRight=4;whiteSpace=wrap;overflow=hidden;rotatable=0;points=[[0,0.5],[1,0.5]];portConstraint=eastwest;" vertex="1" parent="i4ThIHbuH4syl8p6AvQ6-4">
          <mxGeometry y="104" width="120" height="26" as="geometry" />
        </mxCell>
        <mxCell id="i4ThIHbuH4syl8p6AvQ6-9" value="Children = 2" style="text;html=1;strokeColor=none;fillColor=none;align=left;verticalAlign=top;spacingLeft=4;spacingRight=4;whiteSpace=wrap;overflow=hidden;rotatable=0;points=[[0,0.5],[1,0.5]];portConstraint=eastwest;" vertex="1" parent="i4ThIHbuH4syl8p6AvQ6-4">
          <mxGeometry y="130" width="120" height="30" as="geometry" />
        </mxCell>
        <mxCell id="i4ThIHbuH4syl8p6AvQ6-10" style="edgeStyle=orthogonalEdgeStyle;rounded=0;orthogonalLoop=1;jettySize=auto;html=1;exitX=1;exitY=0.5;exitDx=0;exitDy=0;" edge="1" parent="i4ThIHbuH4syl8p6AvQ6-4" source="i4ThIHbuH4syl8p6AvQ6-5" target="i4ThIHbuH4syl8p6AvQ6-5">
          <mxGeometry relative="1" as="geometry" />
        </mxCell>
        <mxCell id="i4ThIHbuH4syl8p6AvQ6-11" style="edgeStyle=orthogonalEdgeStyle;rounded=0;orthogonalLoop=1;jettySize=auto;html=1;exitX=1;exitY=0.5;exitDx=0;exitDy=0;" edge="1" parent="i4ThIHbuH4syl8p6AvQ6-4" source="i4ThIHbuH4syl8p6AvQ6-7" target="i4ThIHbuH4syl8p6AvQ6-7">
          <mxGeometry relative="1" as="geometry" />
        </mxCell>
        <mxCell id="i4ThIHbuH4syl8p6AvQ6-12" value="setcc:i1" style="swimlane;html=1;fontStyle=1;align=center;verticalAlign=top;childLayout=stackLayout;horizontal=1;startSize=26;horizontalStack=0;resizeParent=1;resizeLast=0;collapsible=1;marginBottom=0;swimlaneFillColor=#ffffff;rounded=0;shadow=0;comic=0;labelBackgroundColor=none;strokeWidth=1;fillColor=none;fontFamily=Verdana;fontSize=12" vertex="1" parent="1">
          <mxGeometry x="240" y="280" width="120" height="160" as="geometry" />
        </mxCell>
        <mxCell id="i4ThIHbuH4syl8p6AvQ6-13" value="Types =&amp;nbsp; i1" style="text;html=1;strokeColor=none;fillColor=none;align=left;verticalAlign=top;spacingLeft=4;spacingRight=4;whiteSpace=wrap;overflow=hidden;rotatable=0;points=[[0,0.5],[1,0.5]];portConstraint=eastwest;" vertex="1" parent="i4ThIHbuH4syl8p6AvQ6-12">
          <mxGeometry y="26" width="120" height="26" as="geometry" />
        </mxCell>
        <mxCell id="i4ThIHbuH4syl8p6AvQ6-14" value="Operator = setcc" style="text;html=1;strokeColor=none;fillColor=none;align=left;verticalAlign=top;spacingLeft=4;spacingRight=4;whiteSpace=wrap;overflow=hidden;rotatable=0;points=[[0,0.5],[1,0.5]];portConstraint=eastwest;" vertex="1" parent="i4ThIHbuH4syl8p6AvQ6-12">
          <mxGeometry y="52" width="120" height="26" as="geometry" />
        </mxCell>
        <mxCell id="i4ThIHbuH4syl8p6AvQ6-15" value="Val&amp;nbsp; = 0" style="text;html=1;strokeColor=none;fillColor=none;align=left;verticalAlign=top;spacingLeft=4;spacingRight=4;whiteSpace=wrap;overflow=hidden;rotatable=0;points=[[0,0.5],[1,0.5]];portConstraint=eastwest;" vertex="1" parent="i4ThIHbuH4syl8p6AvQ6-12">
          <mxGeometry y="78" width="120" height="26" as="geometry" />
        </mxCell>
        <mxCell id="i4ThIHbuH4syl8p6AvQ6-16" value="Name =&amp;nbsp;" style="text;html=1;strokeColor=none;fillColor=none;align=left;verticalAlign=top;spacingLeft=4;spacingRight=4;whiteSpace=wrap;overflow=hidden;rotatable=0;points=[[0,0.5],[1,0.5]];portConstraint=eastwest;" vertex="1" parent="i4ThIHbuH4syl8p6AvQ6-12">
          <mxGeometry y="104" width="120" height="26" as="geometry" />
        </mxCell>
        <mxCell id="i4ThIHbuH4syl8p6AvQ6-17" value="Children = 3" style="text;html=1;strokeColor=none;fillColor=none;align=left;verticalAlign=top;spacingLeft=4;spacingRight=4;whiteSpace=wrap;overflow=hidden;rotatable=0;points=[[0,0.5],[1,0.5]];portConstraint=eastwest;" vertex="1" parent="i4ThIHbuH4syl8p6AvQ6-12">
          <mxGeometry y="130" width="120" height="30" as="geometry" />
        </mxCell>
        <mxCell id="i4ThIHbuH4syl8p6AvQ6-18" style="edgeStyle=orthogonalEdgeStyle;rounded=0;orthogonalLoop=1;jettySize=auto;html=1;exitX=1;exitY=0.5;exitDx=0;exitDy=0;" edge="1" parent="i4ThIHbuH4syl8p6AvQ6-12" source="i4ThIHbuH4syl8p6AvQ6-13" target="i4ThIHbuH4syl8p6AvQ6-13">
          <mxGeometry relative="1" as="geometry" />
        </mxCell>
        <mxCell id="i4ThIHbuH4syl8p6AvQ6-19" style="edgeStyle=orthogonalEdgeStyle;rounded=0;orthogonalLoop=1;jettySize=auto;html=1;exitX=1;exitY=0.5;exitDx=0;exitDy=0;" edge="1" parent="i4ThIHbuH4syl8p6AvQ6-12" source="i4ThIHbuH4syl8p6AvQ6-15" target="i4ThIHbuH4syl8p6AvQ6-15">
          <mxGeometry relative="1" as="geometry" />
        </mxCell>
        <mxCell id="i4ThIHbuH4syl8p6AvQ6-20" value="xor:i1" style="swimlane;html=1;fontStyle=1;align=center;verticalAlign=top;childLayout=stackLayout;horizontal=1;startSize=26;horizontalStack=0;resizeParent=1;resizeLast=0;collapsible=1;marginBottom=0;swimlaneFillColor=#ffffff;rounded=0;shadow=0;comic=0;labelBackgroundColor=none;strokeWidth=1;fillColor=none;fontFamily=Verdana;fontSize=12" vertex="1" parent="1">
          <mxGeometry x="680" y="280" width="120" height="160" as="geometry" />
        </mxCell>
        <mxCell id="i4ThIHbuH4syl8p6AvQ6-21" value="Types =&amp;nbsp; i1" style="text;html=1;strokeColor=none;fillColor=none;align=left;verticalAlign=top;spacingLeft=4;spacingRight=4;whiteSpace=wrap;overflow=hidden;rotatable=0;points=[[0,0.5],[1,0.5]];portConstraint=eastwest;" vertex="1" parent="i4ThIHbuH4syl8p6AvQ6-20">
          <mxGeometry y="26" width="120" height="26" as="geometry" />
        </mxCell>
        <mxCell id="i4ThIHbuH4syl8p6AvQ6-22" value="Operator = xor" style="text;html=1;strokeColor=none;fillColor=none;align=left;verticalAlign=top;spacingLeft=4;spacingRight=4;whiteSpace=wrap;overflow=hidden;rotatable=0;points=[[0,0.5],[1,0.5]];portConstraint=eastwest;" vertex="1" parent="i4ThIHbuH4syl8p6AvQ6-20">
          <mxGeometry y="52" width="120" height="26" as="geometry" />
        </mxCell>
        <mxCell id="i4ThIHbuH4syl8p6AvQ6-23" value="Val&amp;nbsp; = 0" style="text;html=1;strokeColor=none;fillColor=none;align=left;verticalAlign=top;spacingLeft=4;spacingRight=4;whiteSpace=wrap;overflow=hidden;rotatable=0;points=[[0,0.5],[1,0.5]];portConstraint=eastwest;" vertex="1" parent="i4ThIHbuH4syl8p6AvQ6-20">
          <mxGeometry y="78" width="120" height="26" as="geometry" />
        </mxCell>
        <mxCell id="i4ThIHbuH4syl8p6AvQ6-24" value="Name =&amp;nbsp;" style="text;html=1;strokeColor=none;fillColor=none;align=left;verticalAlign=top;spacingLeft=4;spacingRight=4;whiteSpace=wrap;overflow=hidden;rotatable=0;points=[[0,0.5],[1,0.5]];portConstraint=eastwest;" vertex="1" parent="i4ThIHbuH4syl8p6AvQ6-20">
          <mxGeometry y="104" width="120" height="26" as="geometry" />
        </mxCell>
        <mxCell id="i4ThIHbuH4syl8p6AvQ6-25" value="Children = 2" style="text;html=1;strokeColor=none;fillColor=none;align=left;verticalAlign=top;spacingLeft=4;spacingRight=4;whiteSpace=wrap;overflow=hidden;rotatable=0;points=[[0,0.5],[1,0.5]];portConstraint=eastwest;" vertex="1" parent="i4ThIHbuH4syl8p6AvQ6-20">
          <mxGeometry y="130" width="120" height="30" as="geometry" />
        </mxCell>
        <mxCell id="i4ThIHbuH4syl8p6AvQ6-26" style="edgeStyle=orthogonalEdgeStyle;rounded=0;orthogonalLoop=1;jettySize=auto;html=1;exitX=1;exitY=0.5;exitDx=0;exitDy=0;" edge="1" parent="i4ThIHbuH4syl8p6AvQ6-20" source="i4ThIHbuH4syl8p6AvQ6-21" target="i4ThIHbuH4syl8p6AvQ6-21">
          <mxGeometry relative="1" as="geometry" />
        </mxCell>
        <mxCell id="i4ThIHbuH4syl8p6AvQ6-27" style="edgeStyle=orthogonalEdgeStyle;rounded=0;orthogonalLoop=1;jettySize=auto;html=1;exitX=1;exitY=0.5;exitDx=0;exitDy=0;" edge="1" parent="i4ThIHbuH4syl8p6AvQ6-20" source="i4ThIHbuH4syl8p6AvQ6-23" target="i4ThIHbuH4syl8p6AvQ6-23">
          <mxGeometry relative="1" as="geometry" />
        </mxCell>
        <mxCell id="i4ThIHbuH4syl8p6AvQ6-28" value="RegI16:i16" style="swimlane;html=1;fontStyle=1;align=center;verticalAlign=top;childLayout=stackLayout;horizontal=1;startSize=26;horizontalStack=0;resizeParent=1;resizeLast=0;collapsible=1;marginBottom=0;swimlaneFillColor=#ffffff;rounded=0;shadow=0;comic=0;labelBackgroundColor=none;strokeWidth=1;fillColor=none;fontFamily=Verdana;fontSize=12" vertex="1" parent="1">
          <mxGeometry x="80" y="520" width="120" height="160" as="geometry" />
        </mxCell>
        <mxCell id="i4ThIHbuH4syl8p6AvQ6-29" value="Types =&amp;nbsp; i16" style="text;html=1;strokeColor=none;fillColor=none;align=left;verticalAlign=top;spacingLeft=4;spacingRight=4;whiteSpace=wrap;overflow=hidden;rotatable=0;points=[[0,0.5],[1,0.5]];portConstraint=eastwest;" vertex="1" parent="i4ThIHbuH4syl8p6AvQ6-28">
          <mxGeometry y="26" width="120" height="26" as="geometry" />
        </mxCell>
        <mxCell id="i4ThIHbuH4syl8p6AvQ6-30" value="Operator = 0" style="text;html=1;strokeColor=none;fillColor=none;align=left;verticalAlign=top;spacingLeft=4;spacingRight=4;whiteSpace=wrap;overflow=hidden;rotatable=0;points=[[0,0.5],[1,0.5]];portConstraint=eastwest;" vertex="1" parent="i4ThIHbuH4syl8p6AvQ6-28">
          <mxGeometry y="52" width="120" height="26" as="geometry" />
        </mxCell>
        <mxCell id="i4ThIHbuH4syl8p6AvQ6-31" value="Val&amp;nbsp; = RegI16" style="text;html=1;strokeColor=none;fillColor=none;align=left;verticalAlign=top;spacingLeft=4;spacingRight=4;whiteSpace=wrap;overflow=hidden;rotatable=0;points=[[0,0.5],[1,0.5]];portConstraint=eastwest;" vertex="1" parent="i4ThIHbuH4syl8p6AvQ6-28">
          <mxGeometry y="78" width="120" height="26" as="geometry" />
        </mxCell>
        <mxCell id="i4ThIHbuH4syl8p6AvQ6-32" value="Name = a" style="text;html=1;strokeColor=none;fillColor=none;align=left;verticalAlign=top;spacingLeft=4;spacingRight=4;whiteSpace=wrap;overflow=hidden;rotatable=0;points=[[0,0.5],[1,0.5]];portConstraint=eastwest;" vertex="1" parent="i4ThIHbuH4syl8p6AvQ6-28">
          <mxGeometry y="104" width="120" height="26" as="geometry" />
        </mxCell>
        <mxCell id="i4ThIHbuH4syl8p6AvQ6-33" value="Children = 0" style="text;html=1;strokeColor=none;fillColor=none;align=left;verticalAlign=top;spacingLeft=4;spacingRight=4;whiteSpace=wrap;overflow=hidden;rotatable=0;points=[[0,0.5],[1,0.5]];portConstraint=eastwest;" vertex="1" parent="i4ThIHbuH4syl8p6AvQ6-28">
          <mxGeometry y="130" width="120" height="30" as="geometry" />
        </mxCell>
        <mxCell id="i4ThIHbuH4syl8p6AvQ6-34" style="edgeStyle=orthogonalEdgeStyle;rounded=0;orthogonalLoop=1;jettySize=auto;html=1;exitX=1;exitY=0.5;exitDx=0;exitDy=0;" edge="1" parent="i4ThIHbuH4syl8p6AvQ6-28" source="i4ThIHbuH4syl8p6AvQ6-29" target="i4ThIHbuH4syl8p6AvQ6-29">
          <mxGeometry relative="1" as="geometry" />
        </mxCell>
        <mxCell id="i4ThIHbuH4syl8p6AvQ6-35" style="edgeStyle=orthogonalEdgeStyle;rounded=0;orthogonalLoop=1;jettySize=auto;html=1;exitX=1;exitY=0.5;exitDx=0;exitDy=0;" edge="1" parent="i4ThIHbuH4syl8p6AvQ6-28" source="i4ThIHbuH4syl8p6AvQ6-31" target="i4ThIHbuH4syl8p6AvQ6-31">
          <mxGeometry relative="1" as="geometry" />
        </mxCell>
        <mxCell id="i4ThIHbuH4syl8p6AvQ6-44" value="-1" style="swimlane;html=1;fontStyle=1;align=center;verticalAlign=top;childLayout=stackLayout;horizontal=1;startSize=26;horizontalStack=0;resizeParent=1;resizeLast=0;collapsible=1;marginBottom=0;swimlaneFillColor=#ffffff;rounded=0;shadow=0;comic=0;labelBackgroundColor=none;strokeWidth=1;fillColor=none;fontFamily=Verdana;fontSize=12" vertex="1" parent="1">
          <mxGeometry x="760" y="520" width="120" height="160" as="geometry" />
        </mxCell>
        <mxCell id="i4ThIHbuH4syl8p6AvQ6-45" value="Types =&amp;nbsp; i1" style="text;html=1;strokeColor=none;fillColor=none;align=left;verticalAlign=top;spacingLeft=4;spacingRight=4;whiteSpace=wrap;overflow=hidden;rotatable=0;points=[[0,0.5],[1,0.5]];portConstraint=eastwest;" vertex="1" parent="i4ThIHbuH4syl8p6AvQ6-44">
          <mxGeometry y="26" width="120" height="26" as="geometry" />
        </mxCell>
        <mxCell id="i4ThIHbuH4syl8p6AvQ6-46" value="Operator = 0" style="text;html=1;strokeColor=none;fillColor=none;align=left;verticalAlign=top;spacingLeft=4;spacingRight=4;whiteSpace=wrap;overflow=hidden;rotatable=0;points=[[0,0.5],[1,0.5]];portConstraint=eastwest;" vertex="1" parent="i4ThIHbuH4syl8p6AvQ6-44">
          <mxGeometry y="52" width="120" height="26" as="geometry" />
        </mxCell>
        <mxCell id="i4ThIHbuH4syl8p6AvQ6-47" value="Val&amp;nbsp; = -1" style="text;html=1;strokeColor=none;fillColor=none;align=left;verticalAlign=top;spacingLeft=4;spacingRight=4;whiteSpace=wrap;overflow=hidden;rotatable=0;points=[[0,0.5],[1,0.5]];portConstraint=eastwest;" vertex="1" parent="i4ThIHbuH4syl8p6AvQ6-44">
          <mxGeometry y="78" width="120" height="26" as="geometry" />
        </mxCell>
        <mxCell id="i4ThIHbuH4syl8p6AvQ6-48" value="Name =&amp;nbsp;" style="text;html=1;strokeColor=none;fillColor=none;align=left;verticalAlign=top;spacingLeft=4;spacingRight=4;whiteSpace=wrap;overflow=hidden;rotatable=0;points=[[0,0.5],[1,0.5]];portConstraint=eastwest;" vertex="1" parent="i4ThIHbuH4syl8p6AvQ6-44">
          <mxGeometry y="104" width="120" height="26" as="geometry" />
        </mxCell>
        <mxCell id="i4ThIHbuH4syl8p6AvQ6-49" value="Children = 0" style="text;html=1;strokeColor=none;fillColor=none;align=left;verticalAlign=top;spacingLeft=4;spacingRight=4;whiteSpace=wrap;overflow=hidden;rotatable=0;points=[[0,0.5],[1,0.5]];portConstraint=eastwest;" vertex="1" parent="i4ThIHbuH4syl8p6AvQ6-44">
          <mxGeometry y="130" width="120" height="30" as="geometry" />
        </mxCell>
        <mxCell id="i4ThIHbuH4syl8p6AvQ6-50" style="edgeStyle=orthogonalEdgeStyle;rounded=0;orthogonalLoop=1;jettySize=auto;html=1;exitX=1;exitY=0.5;exitDx=0;exitDy=0;" edge="1" parent="i4ThIHbuH4syl8p6AvQ6-44" source="i4ThIHbuH4syl8p6AvQ6-45" target="i4ThIHbuH4syl8p6AvQ6-45">
          <mxGeometry relative="1" as="geometry" />
        </mxCell>
        <mxCell id="i4ThIHbuH4syl8p6AvQ6-51" style="edgeStyle=orthogonalEdgeStyle;rounded=0;orthogonalLoop=1;jettySize=auto;html=1;exitX=1;exitY=0.5;exitDx=0;exitDy=0;" edge="1" parent="i4ThIHbuH4syl8p6AvQ6-44" source="i4ThIHbuH4syl8p6AvQ6-47" target="i4ThIHbuH4syl8p6AvQ6-47">
          <mxGeometry relative="1" as="geometry" />
        </mxCell>
        <mxCell id="i4ThIHbuH4syl8p6AvQ6-52" value="regpred:i1" style="swimlane;html=1;fontStyle=1;align=center;verticalAlign=top;childLayout=stackLayout;horizontal=1;startSize=26;horizontalStack=0;resizeParent=1;resizeLast=0;collapsible=1;marginBottom=0;swimlaneFillColor=#ffffff;rounded=0;shadow=0;comic=0;labelBackgroundColor=none;strokeWidth=1;fillColor=none;fontFamily=Verdana;fontSize=12" vertex="1" parent="1">
          <mxGeometry x="600" y="520" width="120" height="160" as="geometry" />
        </mxCell>
        <mxCell id="i4ThIHbuH4syl8p6AvQ6-53" value="Types =&amp;nbsp; i1" style="text;html=1;strokeColor=none;fillColor=none;align=left;verticalAlign=top;spacingLeft=4;spacingRight=4;whiteSpace=wrap;overflow=hidden;rotatable=0;points=[[0,0.5],[1,0.5]];portConstraint=eastwest;" vertex="1" parent="i4ThIHbuH4syl8p6AvQ6-52">
          <mxGeometry y="26" width="120" height="26" as="geometry" />
        </mxCell>
        <mxCell id="i4ThIHbuH4syl8p6AvQ6-54" value="Operator = 0" style="text;html=1;strokeColor=none;fillColor=none;align=left;verticalAlign=top;spacingLeft=4;spacingRight=4;whiteSpace=wrap;overflow=hidden;rotatable=0;points=[[0,0.5],[1,0.5]];portConstraint=eastwest;" vertex="1" parent="i4ThIHbuH4syl8p6AvQ6-52">
          <mxGeometry y="52" width="120" height="26" as="geometry" />
        </mxCell>
        <mxCell id="i4ThIHbuH4syl8p6AvQ6-55" value="Val&amp;nbsp; = regpred" style="text;html=1;strokeColor=none;fillColor=none;align=left;verticalAlign=top;spacingLeft=4;spacingRight=4;whiteSpace=wrap;overflow=hidden;rotatable=0;points=[[0,0.5],[1,0.5]];portConstraint=eastwest;" vertex="1" parent="i4ThIHbuH4syl8p6AvQ6-52">
          <mxGeometry y="78" width="120" height="26" as="geometry" />
        </mxCell>
        <mxCell id="i4ThIHbuH4syl8p6AvQ6-56" value="Name = c" style="text;html=1;strokeColor=none;fillColor=none;align=left;verticalAlign=top;spacingLeft=4;spacingRight=4;whiteSpace=wrap;overflow=hidden;rotatable=0;points=[[0,0.5],[1,0.5]];portConstraint=eastwest;" vertex="1" parent="i4ThIHbuH4syl8p6AvQ6-52">
          <mxGeometry y="104" width="120" height="26" as="geometry" />
        </mxCell>
        <mxCell id="i4ThIHbuH4syl8p6AvQ6-57" value="Children = 0" style="text;html=1;strokeColor=none;fillColor=none;align=left;verticalAlign=top;spacingLeft=4;spacingRight=4;whiteSpace=wrap;overflow=hidden;rotatable=0;points=[[0,0.5],[1,0.5]];portConstraint=eastwest;" vertex="1" parent="i4ThIHbuH4syl8p6AvQ6-52">
          <mxGeometry y="130" width="120" height="30" as="geometry" />
        </mxCell>
        <mxCell id="i4ThIHbuH4syl8p6AvQ6-58" style="edgeStyle=orthogonalEdgeStyle;rounded=0;orthogonalLoop=1;jettySize=auto;html=1;exitX=1;exitY=0.5;exitDx=0;exitDy=0;" edge="1" parent="i4ThIHbuH4syl8p6AvQ6-52" source="i4ThIHbuH4syl8p6AvQ6-53" target="i4ThIHbuH4syl8p6AvQ6-53">
          <mxGeometry relative="1" as="geometry" />
        </mxCell>
        <mxCell id="i4ThIHbuH4syl8p6AvQ6-59" style="edgeStyle=orthogonalEdgeStyle;rounded=0;orthogonalLoop=1;jettySize=auto;html=1;exitX=1;exitY=0.5;exitDx=0;exitDy=0;" edge="1" parent="i4ThIHbuH4syl8p6AvQ6-52" source="i4ThIHbuH4syl8p6AvQ6-55" target="i4ThIHbuH4syl8p6AvQ6-55">
          <mxGeometry relative="1" as="geometry" />
        </mxCell>
        <mxCell id="i4ThIHbuH4syl8p6AvQ6-60" value="seteq" style="swimlane;html=1;fontStyle=1;align=center;verticalAlign=top;childLayout=stackLayout;horizontal=1;startSize=26;horizontalStack=0;resizeParent=1;resizeLast=0;collapsible=1;marginBottom=0;swimlaneFillColor=#ffffff;rounded=0;shadow=0;comic=0;labelBackgroundColor=none;strokeWidth=1;fillColor=none;fontFamily=Verdana;fontSize=12" vertex="1" parent="1">
          <mxGeometry x="400" y="520" width="120" height="160" as="geometry" />
        </mxCell>
        <mxCell id="i4ThIHbuH4syl8p6AvQ6-61" value="Types =&amp;nbsp;&amp;nbsp;" style="text;html=1;strokeColor=none;fillColor=none;align=left;verticalAlign=top;spacingLeft=4;spacingRight=4;whiteSpace=wrap;overflow=hidden;rotatable=0;points=[[0,0.5],[1,0.5]];portConstraint=eastwest;" vertex="1" parent="i4ThIHbuH4syl8p6AvQ6-60">
          <mxGeometry y="26" width="120" height="26" as="geometry" />
        </mxCell>
        <mxCell id="i4ThIHbuH4syl8p6AvQ6-62" value="Operator = 0" style="text;html=1;strokeColor=none;fillColor=none;align=left;verticalAlign=top;spacingLeft=4;spacingRight=4;whiteSpace=wrap;overflow=hidden;rotatable=0;points=[[0,0.5],[1,0.5]];portConstraint=eastwest;" vertex="1" parent="i4ThIHbuH4syl8p6AvQ6-60">
          <mxGeometry y="52" width="120" height="26" as="geometry" />
        </mxCell>
        <mxCell id="i4ThIHbuH4syl8p6AvQ6-63" value="Val&amp;nbsp; = seteq" style="text;html=1;strokeColor=none;fillColor=none;align=left;verticalAlign=top;spacingLeft=4;spacingRight=4;whiteSpace=wrap;overflow=hidden;rotatable=0;points=[[0,0.5],[1,0.5]];portConstraint=eastwest;" vertex="1" parent="i4ThIHbuH4syl8p6AvQ6-60">
          <mxGeometry y="78" width="120" height="26" as="geometry" />
        </mxCell>
        <mxCell id="i4ThIHbuH4syl8p6AvQ6-64" value="Name =&amp;nbsp;" style="text;html=1;strokeColor=none;fillColor=none;align=left;verticalAlign=top;spacingLeft=4;spacingRight=4;whiteSpace=wrap;overflow=hidden;rotatable=0;points=[[0,0.5],[1,0.5]];portConstraint=eastwest;" vertex="1" parent="i4ThIHbuH4syl8p6AvQ6-60">
          <mxGeometry y="104" width="120" height="26" as="geometry" />
        </mxCell>
        <mxCell id="i4ThIHbuH4syl8p6AvQ6-65" value="Children = 0" style="text;html=1;strokeColor=none;fillColor=none;align=left;verticalAlign=top;spacingLeft=4;spacingRight=4;whiteSpace=wrap;overflow=hidden;rotatable=0;points=[[0,0.5],[1,0.5]];portConstraint=eastwest;" vertex="1" parent="i4ThIHbuH4syl8p6AvQ6-60">
          <mxGeometry y="130" width="120" height="30" as="geometry" />
        </mxCell>
        <mxCell id="i4ThIHbuH4syl8p6AvQ6-66" style="edgeStyle=orthogonalEdgeStyle;rounded=0;orthogonalLoop=1;jettySize=auto;html=1;exitX=1;exitY=0.5;exitDx=0;exitDy=0;" edge="1" parent="i4ThIHbuH4syl8p6AvQ6-60" source="i4ThIHbuH4syl8p6AvQ6-61" target="i4ThIHbuH4syl8p6AvQ6-61">
          <mxGeometry relative="1" as="geometry" />
        </mxCell>
        <mxCell id="i4ThIHbuH4syl8p6AvQ6-67" style="edgeStyle=orthogonalEdgeStyle;rounded=0;orthogonalLoop=1;jettySize=auto;html=1;exitX=1;exitY=0.5;exitDx=0;exitDy=0;" edge="1" parent="i4ThIHbuH4syl8p6AvQ6-60" source="i4ThIHbuH4syl8p6AvQ6-63" target="i4ThIHbuH4syl8p6AvQ6-63">
          <mxGeometry relative="1" as="geometry" />
        </mxCell>
        <mxCell id="i4ThIHbuH4syl8p6AvQ6-68" value="imm:i16" style="swimlane;html=1;fontStyle=1;align=center;verticalAlign=top;childLayout=stackLayout;horizontal=1;startSize=26;horizontalStack=0;resizeParent=1;resizeLast=0;collapsible=1;marginBottom=0;swimlaneFillColor=#ffffff;rounded=0;shadow=0;comic=0;labelBackgroundColor=none;strokeWidth=1;fillColor=none;fontFamily=Verdana;fontSize=12" vertex="1" parent="1">
          <mxGeometry x="240" y="520" width="120" height="160" as="geometry" />
        </mxCell>
        <mxCell id="i4ThIHbuH4syl8p6AvQ6-69" value="Types =&amp;nbsp; i16" style="text;html=1;strokeColor=none;fillColor=none;align=left;verticalAlign=top;spacingLeft=4;spacingRight=4;whiteSpace=wrap;overflow=hidden;rotatable=0;points=[[0,0.5],[1,0.5]];portConstraint=eastwest;" vertex="1" parent="i4ThIHbuH4syl8p6AvQ6-68">
          <mxGeometry y="26" width="120" height="26" as="geometry" />
        </mxCell>
        <mxCell id="i4ThIHbuH4syl8p6AvQ6-70" value="Operator = 0" style="text;html=1;strokeColor=none;fillColor=none;align=left;verticalAlign=top;spacingLeft=4;spacingRight=4;whiteSpace=wrap;overflow=hidden;rotatable=0;points=[[0,0.5],[1,0.5]];portConstraint=eastwest;" vertex="1" parent="i4ThIHbuH4syl8p6AvQ6-68">
          <mxGeometry y="52" width="120" height="26" as="geometry" />
        </mxCell>
        <mxCell id="i4ThIHbuH4syl8p6AvQ6-71" value="Val&amp;nbsp; = imm" style="text;html=1;strokeColor=none;fillColor=none;align=left;verticalAlign=top;spacingLeft=4;spacingRight=4;whiteSpace=wrap;overflow=hidden;rotatable=0;points=[[0,0.5],[1,0.5]];portConstraint=eastwest;" vertex="1" parent="i4ThIHbuH4syl8p6AvQ6-68">
          <mxGeometry y="78" width="120" height="26" as="geometry" />
        </mxCell>
        <mxCell id="i4ThIHbuH4syl8p6AvQ6-72" value="Name = b" style="text;html=1;strokeColor=none;fillColor=none;align=left;verticalAlign=top;spacingLeft=4;spacingRight=4;whiteSpace=wrap;overflow=hidden;rotatable=0;points=[[0,0.5],[1,0.5]];portConstraint=eastwest;" vertex="1" parent="i4ThIHbuH4syl8p6AvQ6-68">
          <mxGeometry y="104" width="120" height="26" as="geometry" />
        </mxCell>
        <mxCell id="i4ThIHbuH4syl8p6AvQ6-73" value="Children = 0" style="text;html=1;strokeColor=none;fillColor=none;align=left;verticalAlign=top;spacingLeft=4;spacingRight=4;whiteSpace=wrap;overflow=hidden;rotatable=0;points=[[0,0.5],[1,0.5]];portConstraint=eastwest;" vertex="1" parent="i4ThIHbuH4syl8p6AvQ6-68">
          <mxGeometry y="130" width="120" height="30" as="geometry" />
        </mxCell>
        <mxCell id="i4ThIHbuH4syl8p6AvQ6-74" style="edgeStyle=orthogonalEdgeStyle;rounded=0;orthogonalLoop=1;jettySize=auto;html=1;exitX=1;exitY=0.5;exitDx=0;exitDy=0;" edge="1" parent="i4ThIHbuH4syl8p6AvQ6-68" source="i4ThIHbuH4syl8p6AvQ6-69" target="i4ThIHbuH4syl8p6AvQ6-69">
          <mxGeometry relative="1" as="geometry" />
        </mxCell>
        <mxCell id="i4ThIHbuH4syl8p6AvQ6-75" style="edgeStyle=orthogonalEdgeStyle;rounded=0;orthogonalLoop=1;jettySize=auto;html=1;exitX=1;exitY=0.5;exitDx=0;exitDy=0;" edge="1" parent="i4ThIHbuH4syl8p6AvQ6-68" source="i4ThIHbuH4syl8p6AvQ6-71" target="i4ThIHbuH4syl8p6AvQ6-71">
          <mxGeometry relative="1" as="geometry" />
        </mxCell>
        <mxCell id="i4ThIHbuH4syl8p6AvQ6-77" value="" style="edgeStyle=elbowEdgeStyle;elbow=horizontal;endArrow=classic;html=1;rounded=0;entryX=0.5;entryY=0;entryDx=0;entryDy=0;" edge="1" parent="1" source="i4ThIHbuH4syl8p6AvQ6-9" target="i4ThIHbuH4syl8p6AvQ6-12">
          <mxGeometry width="50" height="50" relative="1" as="geometry">
            <mxPoint x="510" y="320" as="sourcePoint" />
            <mxPoint x="560" y="270" as="targetPoint" />
            <Array as="points">
              <mxPoint x="300" y="260" />
            </Array>
          </mxGeometry>
        </mxCell>
        <mxCell id="i4ThIHbuH4syl8p6AvQ6-78" value="" style="edgeStyle=elbowEdgeStyle;elbow=horizontal;endArrow=classic;html=1;rounded=0;entryX=0.5;entryY=0;entryDx=0;entryDy=0;" edge="1" parent="1">
          <mxGeometry width="50" height="50" relative="1" as="geometry">
            <mxPoint x="460" y="225" as="sourcePoint" />
            <mxPoint x="300" y="280" as="targetPoint" />
            <Array as="points">
              <mxPoint x="300" y="260" />
            </Array>
          </mxGeometry>
        </mxCell>
        <mxCell id="i4ThIHbuH4syl8p6AvQ6-81" value="" style="edgeStyle=elbowEdgeStyle;elbow=horizontal;endArrow=classic;html=1;rounded=0;entryX=0.5;entryY=0;entryDx=0;entryDy=0;exitX=1;exitY=0.5;exitDx=0;exitDy=0;" edge="1" parent="1" source="i4ThIHbuH4syl8p6AvQ6-25">
          <mxGeometry width="50" height="50" relative="1" as="geometry">
            <mxPoint x="980" y="465" as="sourcePoint" />
            <mxPoint x="820" y="520" as="targetPoint" />
            <Array as="points">
              <mxPoint x="820" y="500" />
            </Array>
          </mxGeometry>
        </mxCell>
        <mxCell id="i4ThIHbuH4syl8p6AvQ6-82" value="" style="edgeStyle=elbowEdgeStyle;elbow=horizontal;endArrow=classic;html=1;rounded=0;entryX=0.5;entryY=0;entryDx=0;entryDy=0;exitX=0;exitY=0.5;exitDx=0;exitDy=0;" edge="1" parent="1" source="i4ThIHbuH4syl8p6AvQ6-25">
          <mxGeometry width="50" height="50" relative="1" as="geometry">
            <mxPoint x="820" y="465" as="sourcePoint" />
            <mxPoint x="660" y="520" as="targetPoint" />
            <Array as="points">
              <mxPoint x="660" y="500" />
            </Array>
          </mxGeometry>
        </mxCell>
        <mxCell id="i4ThIHbuH4syl8p6AvQ6-83" value="" style="edgeStyle=elbowEdgeStyle;elbow=horizontal;endArrow=classic;html=1;rounded=0;entryX=0.5;entryY=0;entryDx=0;entryDy=0;exitX=1;exitY=0.5;exitDx=0;exitDy=0;" edge="1" parent="1" source="i4ThIHbuH4syl8p6AvQ6-17">
          <mxGeometry width="50" height="50" relative="1" as="geometry">
            <mxPoint x="620" y="465" as="sourcePoint" />
            <mxPoint x="460" y="520" as="targetPoint" />
            <Array as="points">
              <mxPoint x="460" y="500" />
            </Array>
          </mxGeometry>
        </mxCell>
        <mxCell id="i4ThIHbuH4syl8p6AvQ6-84" value="" style="edgeStyle=elbowEdgeStyle;elbow=horizontal;endArrow=classic;html=1;rounded=0;entryX=0.5;entryY=0;entryDx=0;entryDy=0;exitX=0.5;exitY=1.133;exitDx=0;exitDy=0;exitPerimeter=0;" edge="1" parent="1" source="i4ThIHbuH4syl8p6AvQ6-17">
          <mxGeometry width="50" height="50" relative="1" as="geometry">
            <mxPoint x="460" y="465" as="sourcePoint" />
            <mxPoint x="300" y="520" as="targetPoint" />
            <Array as="points">
              <mxPoint x="300" y="500" />
            </Array>
          </mxGeometry>
        </mxCell>
        <mxCell id="i4ThIHbuH4syl8p6AvQ6-85" value="" style="edgeStyle=elbowEdgeStyle;elbow=horizontal;endArrow=classic;html=1;rounded=0;entryX=0.5;entryY=0;entryDx=0;entryDy=0;exitX=0;exitY=0.5;exitDx=0;exitDy=0;" edge="1" parent="1" source="i4ThIHbuH4syl8p6AvQ6-17">
          <mxGeometry width="50" height="50" relative="1" as="geometry">
            <mxPoint x="300" y="465" as="sourcePoint" />
            <mxPoint x="140" y="520" as="targetPoint" />
            <Array as="points">
              <mxPoint x="140" y="500" />
            </Array>
          </mxGeometry>
        </mxCell>
        <mxCell id="i4ThIHbuH4syl8p6AvQ6-86" value="" style="edgeStyle=elbowEdgeStyle;elbow=horizontal;endArrow=classic;html=1;rounded=0;entryX=0.5;entryY=0;entryDx=0;entryDy=0;" edge="1" parent="1" source="i4ThIHbuH4syl8p6AvQ6-9" target="i4ThIHbuH4syl8p6AvQ6-20">
          <mxGeometry width="50" height="50" relative="1" as="geometry">
            <mxPoint x="540" y="305" as="sourcePoint" />
            <mxPoint x="380" y="360" as="targetPoint" />
            <Array as="points">
              <mxPoint x="740" y="225" />
            </Array>
          </mxGeometry>
        </mxCell>
      </root>
    </mxGraphModel>
  </diagram>
</mxfile>
